# xmcd
#
# Track frame offsets:
#	150
#	16081
#	28284
#	37653
#	46892
#	57884
#	73698
#	88212
#	98662
#	108097
#	121523
#	133550
#	145414
#	158451
#	175525
#
# Disc length: 2511 seconds
#
# Revision: 2
# Processed by: cddbd v1.5.2PL0 Copyright (c) Steve Scherf et al.
# Submitted via: audiograbber 1.83.01
#
DISCID=b009cd0f
DTITLE=Various Artist - Mega Country Vol. III CD1
DYEAR=1998
DGENRE=Country
TTITLE0=Willie Nelson - Always on my mind
TTITLE1=Patsy Cline - A poor man´s rose
TTITLE2=George Jones - Lonely Street
TTITLE3=Loretta Lynn - Y'all come
TTITLE4=Charly Pride - Louisiana man
TTITLE5=Brenda Lee - Johnny one time
TTITLE6=The Buckeroos - Rollin'back to Tennesee
TTITLE7=Johnny Russel - Act naturally
TTITLE8=Skeeter Davis - Am I hate easy to forget
TTITLE9=Jerry Lee Lewis - Another Place, another time
TTITLE10=Ernest Tubb - Thanks A Lot
TTITLE11=Dave Dudly - One more mile
TTITLE12=Dottie West - D.I.V.O.R.C.E.
TTITLE13=Tom T.Hall - Old dogs, children and watermelon wine
TTITLE14=Billie Jo Spears - Dallas
EXTD=
EXTT0=
EXTT1=
EXTT2=
EXTT3=
EXTT4=
EXTT5=
EXTT6=
EXTT7=
EXTT8=
EXTT9=
EXTT10=
EXTT11=
EXTT12=
EXTT13=
EXTT14=
PLAYORDER=
